<svg id="Ebene_1" data-name="Ebene 1" xmlns="http://www.w3.org/2000/svg" viewBox="0 0 155.89 39.59"><defs><style>.cls-1{fill:#e30613;}.cls-2,.cls-3{fill:#1d1d1b;}.cls-3{fill-rule:evenodd;}</style></defs><title>BJ_Logo_4C_A4_ohne</title><polygon class="cls-1" points="0 23.94 111.64 23.94 111.64 26.27 0 26.27 0 23.94 0 23.94"/><polygon class="cls-2" points="95.7 8.45 111.64 8.45 111.64 11.43 103.69 11.43 103.69 13.28 111.64 13.28 111.64 16.13 103.69 16.13 103.69 18.61 111.64 18.61 111.64 21.58 95.7 21.58 95.7 8.45 95.7 8.45"/><path class="cls-2" d="M80.06,12.32H96l0,10.29c-.06,2.28-3.22,3.66-9.59,3.62-3.22,0-9.84.25-9.78-3.49l.1-3.21h7.91v1.82A1.51,1.51,0,0,0,86,22.67a1.4,1.4,0,0,0,1.28-1.19l-.06-6.22H80.06V12.32Z" transform="translate(-2.59 -3.87)"/><polygon class="cls-2" points="59.38 8.45 74.89 8.45 74.89 11.39 71.08 11.39 71.08 21.58 63.19 21.58 63.19 11.39 59.38 11.39 59.38 8.45 59.38 8.45"/><polygon class="cls-2" points="41.77 4.94 48.98 4.94 48.98 6.91 41.77 6.91 41.77 4.94 41.77 4.94"/><polygon class="cls-2" points="50.53 4.94 57.73 4.94 57.73 6.91 50.53 6.91 50.53 4.94 50.53 4.94"/><path class="cls-3" d="M50.76,16.35v5.29c0,.77.64,1.42,1.83,1.42a1.57,1.57,0,0,0,1.63-1.4v-5.3a1.63,1.63,0,0,0-1.71-1.29,1.61,1.61,0,0,0-1.76,1.28ZM42.93,19c0-4,.93-7.23,9.5-7.25,8.76,0,9.49,3.25,9.5,7.25,0,4.28-.43,7.25-9.5,7.26-8.64,0-9.5-3.12-9.5-7.26Z" transform="translate(-2.59 -3.87)"/><path class="cls-3" d="M30.9,14.85v2.51h1.88A1.47,1.47,0,0,0,34,16.12a1.25,1.25,0,0,0-1.09-1.27Zm-7.24-2.53H38.17c2.34,0,3.6,2.31,3.59,3.85A3.74,3.74,0,0,1,39,19.91l2.61,5.55h-8l-2.68-5.27,0,5.27H23.68l0-13.14Z" transform="translate(-2.59 -3.87)"/><path class="cls-3" d="M10.41,14.86v2.48l1.72,0a1.34,1.34,0,0,0,1.27-1.19,1.19,1.19,0,0,0-1.06-1.31Zm0,5.49v2.49h1.72a1.33,1.33,0,0,0,1.27-1.19,1.18,1.18,0,0,0-1.06-1.3Zm-7.82-8H18.16a3.31,3.31,0,0,1,3.5,3,4,4,0,0,1-2.11,3.52,3.45,3.45,0,0,1,2,3.31A3.58,3.58,0,0,1,18,25.46H2.59V12.32Z" transform="translate(-2.59 -3.87)"/><path class="cls-2" d="M107.73,36.73v1.69h4.5c0,1.81-.25,1.62-3.86,1.62s-3.85.19-3.85-1.62V35.23c0-1.19.32-1.1,3.85-1.1,2.81,0,3.76-.15,3.86,1.09h2v-.36a2.44,2.44,0,0,0-2.64-2.42h-7.09a1.8,1.8,0,0,0-2,1.69c0,.15-.19,2.33-.17,2.79a34,34,0,0,0,.17,3.48,2,2,0,0,0,2.19,1.33h3.68c2.8,0,4.18.08,4.65-.15,1-.48,1.23-1.13,1.23-2.68V36.73Z" transform="translate(-2.59 -3.87)"/><polygon class="cls-2" points="11.61 28.62 9.59 28.62 9.59 32.31 2.02 32.31 2.02 28.62 0 28.62 0 37.91 2.02 37.91 2.02 34 9.59 34 9.59 37.91 11.61 37.91 11.61 28.62 11.61 28.62"/><polygon class="cls-2" points="20.57 30.31 27.5 30.31 27.5 28.62 18.55 28.62 18.55 37.91 27.5 37.91 27.5 36.22 20.57 36.22 20.57 34 27.14 34 27.14 32.31 20.57 32.31 20.57 30.31 20.57 30.31"/><polygon class="cls-2" points="37.35 28.62 35.33 28.62 35.33 37.91 37.35 37.91 37.35 28.62 37.35 28.62"/><polygon class="cls-2" points="55.13 28.62 44.73 28.62 44.73 30.31 51.65 30.31 51.65 30.36 44.73 36.42 44.73 37.91 55.13 37.91 55.13 36.22 48.15 36.22 48.15 36.18 55.13 29.95 55.13 28.62 55.13 28.62"/><path class="cls-2" d="M74.45,32.5v6.32c0,1.56-.59,1.27-3.71,1.27S67,40.4,67,38.87V32.5H65v6.37c0,1.53.55,3.14,3.37,3.14h4.83c2.59,0,3.25-1.61,3.25-3.2V32.5Z" transform="translate(-2.59 -3.87)"/><polygon class="cls-2" points="92.97 28.62 90.95 28.62 90.95 36.22 83.43 28.62 80.84 28.62 80.84 37.91 82.86 37.91 82.86 30.86 89.82 37.91 92.97 37.91 92.97 28.62 92.97 28.62"/><path class="cls-2" d="M138.69,3.87a19.8,19.8,0,1,0,19.79,19.8A19.8,19.8,0,0,0,138.69,3.87Zm3.47,36.38a14.17,14.17,0,1,1,14.17-14.17A14.16,14.16,0,0,1,142.16,40.25Z" transform="translate(-2.59 -3.87)"/><path class="cls-1" d="M156.33,26.08a14.17,14.17,0,1,1-14.17-14.17A14.16,14.16,0,0,1,156.33,26.08Z" transform="translate(-2.59 -3.87)"/></svg>