<svg xmlns="http://www.w3.org/2000/svg" viewBox="0 0 100 100"><path d="M-.002 9.263C-.002 3.316 3.305 0 9.261 0h81.477c5.957 0 9.264 3.316 9.264 9.263V90.75c0 5.935-3.307 9.251-9.264 9.251H9.261c-5.956 0-9.263-3.316-9.263-9.251z" fill="#fbb800"/><path d="M4.007 91.076a4.553 4.553 0 0 0 4.913 4.927h82.16A4.555 4.555 0 0 0 96 91.076V8.926a4.553 4.553 0 0 0-4.922-4.925H8.92a4.551 4.551 0 0 0-4.913 4.926z" fill="#cc0935"/><path d="M78.017 40.01a.87.87 0 0 0-.258-.62.84.84 0 0 0-.598-.25l-21.158.005a.843.843 0 0 0-.832.858.891.891 0 0 0 .26.612l.141.142L76.51 61.69l.095.085a.912.912 0 0 0 .555.186.816.816 0 0 0 .857-.737V40.011zm-3.923 2.843v10.965L63.138 42.853z" fill="#fbb800"/><path d="M68.608 60.897a.85.85 0 0 0-.246-.603l-.069-.068-12.148-12.14a.856.856 0 0 0-.612-.26.772.772 0 0 0-.43.127 9.43 9.43 0 0 1-4.685 1.102 9.052 9.052 0 0 1 0-18.105 10.036 10.036 0 0 1 5.309 1.464.869.869 0 0 0 .44.121.835.835 0 0 0 .646-.302l1.804-2.3h-.013L65.44 21.2h.004l1.868-2.394a.848.848 0 0 0 .199-.551.87.87 0 0 0-.319-.676v-.009a28.258 28.258 0 0 0-16.928-5.568c-9.414 0-16.145 3.148-21.265 8.39a26.41 26.41 0 0 0-7.644 19.128c0 8.975 2.92 14.927 7.703 19.999 4.927 5.22 12.373 8.493 21.36 8.493a27.89 27.89 0 0 0 17.846-6.426.851.851 0 0 0 .345-.69zM58.625 62.7a24.665 24.665 0 0 1-8.207 1.378c-6.43 0-13.497-2.57-18.044-7.118a23.59 23.59 0 0 1-6.986-17.441 23.24 23.24 0 0 1 6.951-16.77c4.548-4.547 11.291-6.816 17.717-6.816a25.293 25.293 0 0 1 12.255 3.14l-6.962 8.914a12.985 12.985 0 1 0-4.931 24.998 9.828 9.828 0 0 0 4.44-.766l8.25 8.255a16.896 16.896 0 0 1-4.483 2.226zM17.65 86.167c-2.442 0-3.678-1.257-3.678-3.066v-4.186c0-1.834 1.236-3.049 3.678-3.049a17.923 17.923 0 0 1 3.19.31l-.274 1.964a24.507 24.507 0 0 0-2.916-.232c-1.133 0-1.426.585-1.426 1.369v3.428a1.252 1.252 0 0 0 1.426 1.43 8.77 8.77 0 0 0 1.327-.095v-3.067h2.122v4.711a12.621 12.621 0 0 1-3.449.483zm7.429-3.427c0 .86.289 1.377 1.399 1.377a15.903 15.903 0 0 0 2.584-.241l.31 1.964a12.706 12.706 0 0 1-2.894.327c-2.532 0-3.652-1.257-3.652-3.066v-4.186c0-1.808 1.12-3.049 3.652-3.049a13.651 13.651 0 0 1 2.894.31l-.31 1.964a15.829 15.829 0 0 0-2.584-.232c-1.11 0-1.4.507-1.4 1.378zm12.626 3.427c-2.438 0-3.67-1.257-3.67-3.066v-4.186c0-1.834 1.232-3.049 3.67-3.049a17.782 17.782 0 0 1 3.191.31l-.262 1.964a24.632 24.632 0 0 0-2.93-.232c-1.128 0-1.412.585-1.412 1.369v3.428c0 .784.284 1.43 1.413 1.43a8.542 8.542 0 0 0 1.326-.095v-3.067h2.123v4.711a12.564 12.564 0 0 1-3.45.483zm8.975-3.264h-1.32v3.11h-2.247v-10h4.164c2.425 0 3.328.955 3.328 2.833v1.232a2.408 2.408 0 0 1-1.454 2.506l2.416 3.428h-2.68zm1.679-3.85c0-.74-.297-1.042-1.206-1.042H45.36v2.937h1.792c.965 0 1.206-.345 1.206-1.102zm11.735-3.04v7.088c0 1.516-.951 3.066-3.777 3.066-2.825 0-3.777-1.55-3.777-3.066v-7.088h2.261v6.881c0 .8.388 1.275 1.516 1.275s1.517-.474 1.517-1.275v-6.881zm5.994 6.959h-1.714v3.04h-2.26v-9.999h4.091c2.438 0 3.337.955 3.337 2.833v1.31c0 1.877-1.024 2.816-3.454 2.816zm1.198-3.919c0-.724-.254-1.042-1.198-1.042h-1.714v3.006h1.714c.983 0 1.198-.362 1.198-1.085zm7.716 3.919h-1.704v3.04h-2.249v-9.999h4.083c2.438 0 3.338.955 3.338 2.833v1.31c0 1.877-1.03 2.816-3.468 2.816zm1.216-3.919c0-.724-.264-1.042-1.216-1.042h-1.704v3.006h1.704c.996 0 1.216-.362 1.216-1.085zm3.828 6.959v-9.999h6.287v1.998h-4.04v1.826h3.73v1.997h-3.73v2.18h4.04v1.998z" fill="#fbb800"/></svg>