<?xml version="1.0" encoding="UTF-8"?>
<svg xmlns="http://www.w3.org/2000/svg" id="Ebene_1" version="1.1" viewBox="0 0 686 170.1">
  <defs>
    <style>
      .st0 {
        fill: #006ab3;
      }
    </style>
  </defs>
  <polygon class="st0" points="594.4 2.8 562.1 30.4 655.5 30.4 655.5 123.8 683.1 91.3 683.1 2.8 594.4 2.8"></polygon>
  <rect class="st0" x="576.1" y="45.8" width="63.5" height="63.5"></rect>
  <g>
    <path class="st0" d="M21,45.8l9.8,30.6c.3,1,.7,2.6,1,4.7,0,.5,0,1.1.2,1.6,0-.5,0-1.1,0-1.5.2-2.6.6-4,.8-4.9l9.1-30.6h14.3l9.1,30.6c.2.5.3,1.2.6,2.7.2,1.2.3,2.4.4,3.6,0-.5,0-1.1,0-1.6.3-2.1.7-3.7,1-4.7l9.8-30.6h18.2l-22.3,63.6h-11.6l-11.5-36c-.2-.7-.4-1.6-.6-2.9-.2-1-.2-2-.2-3,0,.4,0,.9,0,1.3-.2,1.9-.4,3.5-.7,4.6l-11.5,36h-11.6L2.8,45.8h18.2Z"></path>
    <path class="st0" d="M99.1,45.8h17.9v63.6h-17.9v-63.6Z"></path>
    <path class="st0" d="M127.3,45.8h40.3v13.3h-22.3v11.3h21.2v13h-21.3v12.6h23v13.3h-40.8v-63.6Z"></path>
    <path class="st0" d="M177,45.8h26.7c13.4,0,24.7,9,28.5,22.3,6.2,22.2-7.3,41.3-27.6,41.3h-27.6v-63.6ZM200.8,95.6c8.6,0,14.9-6.7,14.9-18.3s-6.3-17.9-15.9-17.9h-4.8v36.2h5.9Z"></path>
    <path class="st0" d="M240,45.8h40.3v13.3h-22.3v11.3h21.2v13h-21.3v12.6h23v13.3h-40.8v-63.6Z"></path>
    <path class="st0" d="M289.3,45.8h16.4l14.6,21.7c1.4,2,1.7,3.2,1.7,4.9,0-1.8.3-2.9,1.7-4.9l14.7-21.7h16.4v63.6h-17.4v-38.1c0,.4,0,.9-.2,1.3-.3,1.4-.8,2.6-1.4,3.4l-13.8,19.1-13.7-19.1c-.6-.8-1.2-2-1.4-3.4,0-.4,0-.9-.2-1.3v38.1h-17.4v-63.6Z"></path>
    <path class="st0" d="M382,45.8h18.1l25.1,63.6h-19.3l-4.2-12.1h-20.6l-4.2,12.1h-19.3l24.4-63.6ZM397.5,85.4l-5.5-17.1c-.7-2.6-1-4-.9-6,0,.6,0,1.2,0,1.8,0,1.5-.3,2.9-.8,4.2l-5.3,17.1h12.6Z"></path>
    <path class="st0" d="M427.9,45.8h15.8l26.1,33c.7.9,1.2,2.1,1.6,3.5.2.4.2.8.2,1.2v-37.8h17.4v63.6h-15.9l-26.3-33.1c-1-1.2-1.5-2.8-1.5-4.4v37.5h-17.5v-63.6Z"></path>
    <path class="st0" d="M498.9,45.8h15.8l26.1,33c.7.9,1.2,2.1,1.6,3.5.2.4.2.8.2,1.2v-37.8h17.4v63.6h-15.9l-26.3-33.1c-1-1.2-1.5-2.8-1.5-4.4v37.5h-17.5v-63.6Z"></path>
  </g>
</svg>
